<svg viewBox="0 0 141.14667 151.22667" class="
                            w-[53px] 
                            h-[56.34px]
                            lg:w-[80px] 
                            lg:h-[85px]
                         " xmlns="http://www.w3.org/2000/svg" xmlns:xlink="http://www.w3.org/1999/xlink">
                        <clipPath id="a">
                            <path d="m0 0h1058.61v1134h-1058.61z"></path>
                        </clipPath>
                        <g clip-path="url(#a)" transform="matrix(.13333333 0 0 -.13333333 0 151.22667)">
                            <path d="m1054.13 491.605-105.079 591.915c-8.379 41.44-42.578 55.04-69.453 49.49l-620.078-108.44c-18.75-3.78-30.391-9.29-46.68-23.39 0 0-157.3048-148.989-180.3712-172.504-23.06646-23.555-37.55864-54.571-30.80083-100.196l119.70703-678.0112c8.594-42.02739 45.43-53.66802 71.211-49.757862 25.801 3.859372 636.914 111.320062 668.828 117.918062 32.559 6.723 64.824 28.484 87.988 72.156l94.218 203.047c17.19 38.75 17.95 47.617 10.51 97.773" fill="#f7a51a"></path>
                            <g fill="#03432c">
                                <path d="m721.121 1005.75c-17.285-14.105-66.348-30.473-109.648-36.645-43.36-6.132-64.532.235-47.266 14.297 17.266 14.024 66.367 30.508 109.688 36.598 43.359 6.21 64.531-.23 47.226-14.25"></path><path d="m621.355 1031.72-137.929-42.536-99.297.507 137.07 42.459z"></path><path d="m251.707 999.184 136.25 24.026-41.621-43.48-138.301-22.265z"></path><path d="m194.715 71.6016-26.543 150.1994 150.293 26.562 26.484-150.3513z"></path><path d="m315.34 292.348-98.125 116.875 51.836 143.086 98.261-116.875z"></path><path d="m456.336 534.848c-47.246-8.243-92.344 23.281-100.742 70.625-8.301 47.265 23.301 92.422 70.605 100.781 47.266 8.359 92.422-23.242 100.762-70.625 8.34-47.266-23.301-92.383-70.625-100.781"></path><path d="m651.434 638.559-117.891 140.195 180.234 31.797z"></path><path d="m715.848 928.598-134.278-2.539 173.067 52.07z"></path><path d="m930.75 1016.61 7.07-156.645-42.519 106.289z"></path><path d="m883.309 880.629c8.789 13.476 22.031-10.469 29.531-53.281 7.578-42.813 6.64-88.516-2.188-101.993-8.632-13.515-21.933 10.391-29.492 53.165-7.539 42.89-6.562 88.632 2.149 102.109"></path><path d="m882.566 704.77 36.836-101.25 7.071-147.774-36.953 100.352z"></path><path d="m928.172 230.355-25.293 143.36 27.187 54.57 24.922-141.328z"></path>
                            </g>
                        </g>
                    </svg>